<svg xmlns="http://www.w3.org/2000/svg" viewBox="56.05 47.31 915.72 915.72" fill="currentColor"><path d="M208.6208 272.0032l0.4736-0.2752 257.9936-147.5104a98.9824 98.9824 0 0 1 14.5344-6.7328l0.1056-0.0416a64.3968 64.3968 0 0 1 3.152-1.1072l-0.0096 0.0032a94.9632 94.9632 0 0 1 30.2976-4.928c10.3648 0 20.2688 1.5776 29.7088 4.736a73.5296 73.5296 0 0 1 4.4128 1.5488 97.44 97.44 0 0 1 14.0032 6.5472l128.3648 73.392c2.1248 1.152 4.112 2.544 5.9232 4.144l125.9648 72.8896c0.6112 0.3488 1.216 0.7232 1.8208 1.12 16.032 9.9072 24.048 24.3744 24.048 43.408 0 19.7696-8.6208 34.6016-25.8624 44.496l-0.2464 0.1408-244.16 141.2864 96.1664 55.4816 115.104-67.7696c0.464-0.2848 0.9408-0.5568 1.424-0.8192 0.112-0.064 0.2336-0.128 0.3584-0.192a49.7696 49.7696 0 0 1 24.608-6.3872c14.208 0 26.304 5.0912 36.288 15.2736 9.8112 10.0064 14.7168 22.0416 14.7168 36.1088v117.4528c0 17.008-4.1824 32.8736-12.544 47.5904l-0.32 0.5504-0.128 0.2112c-0.1728 0.3232-0.352 0.6432-0.5344 0.96-8.4832 14.608-20.0192 26.1056-34.608 34.4864-0.2592 0.16-0.5056 0.304-0.7392 0.4384l-256.192 147.344-0.1184 0.0704c-0.3936 0.2272-0.7968 0.448-1.2128 0.672-14.4736 8.224-30.0608 12.336-46.7616 12.336-16.72 0-32.3264-4.1216-46.816-12.368a40.6816 40.6816 0 0 1-1.1616-0.64l-128.144-73.7088a29.664 29.664 0 0 1-1.0944-0.6592l-127.36-73.4592-0.6336-0.368-0.3616-0.2112-2.3456-1.344c-0.304-0.176-0.608-0.352-0.9024-0.5408-11.8752-7.344-21.6224-16.7776-29.2384-28.3008a31.9456 31.9456 0 0 1-3.7376-5.1488C164.288 687.4912 160 671.648 160 654.6368v-298.9024c0-16.4416 3.9968-31.7824 11.9872-46.0256 0.4672-1.04 0.9888-2.0576 1.5616-3.0464 8.56-14.6816 20.2496-26.2336 35.072-34.656z m583.4752 219.872c-0.0864 0.0416-0.1696 0.0896-0.256 0.1376a14.4096 14.4096 0 0 0-0.6272 0.3648l0.8832-0.5056z m0.1024-0.0576l-0.1024 0.0544a34.1952 34.1952 0 0 1 0.1024-0.0544z m-265.4688-314.2272l-0.3008-0.1152-0.2368-0.0992a58.0672 58.0672 0 0 1-0.4672-0.16l-0.016-0.0064-0.0416-0.0128c-3.6-1.1904-7.1008-1.7888-10.4992-1.7888a31.3728 31.3728 0 0 0-10.336 1.7376h-0.0064a24.6752 24.6752 0 0 1-0.384 0.128c-0.496 0.192-0.9184 0.3488-1.264 0.4704-1.4592 0.544-2.9312 1.2416-4.4128 2.0864l-241.5616 138.112 96.7552 55.328 257.9552-147.5072-80.3872-45.9584a33.0592 33.0592 0 0 0-4.7968-2.2144z m149.1424 85.568l-256.4672 148.4192 68.784 41.0048 26.9824 15.616 257.5136-149.0176-96.8128-56.0224zM310.592 586.272l11.8912-6.8576v-148.5568L224 374.5728v261.1904l86.592-49.4944z m75.8944-118.5984v74.8224l64.7456-37.3536-64.7456-37.4688z m225.8656 130.496l-97.1456-56.0448-24.5504 14.1632-119.7856 71.408a32.0256 32.0256 0 0 1-10.8256 4.032l-17.5872 10.048-16.1184 9.296-69.52 40.0992 97.1616 56.0448 258.3712-149.0496z m210.5376-50.1952c0.3072-0.1728 0.6112-0.352 0.9152-0.5376l-0.9152 0.5376z m-83.4336 49.1296l64.3552 37.8944v-75.7888l-64.3552 37.8944z m-241.0496 233.2256c0.2944 0.16 0.592 0.3232 0.8832 0.4928a30.1952 30.1952 0 0 0 15.3632 4.1088 30.1952 30.1952 0 0 0 15.3632-4.1088c0.3808-0.2208 0.7552-0.4256 1.1232-0.6208l239.7152-137.8688-95.9872-55.2064-256.1984 147.3504 79.5008 45.728 0.2368 0.128z"/></svg>
