<svg xmlns="http://www.w3.org/2000/svg" viewBox="0 0 1024 1024" fill="currentColor"><path d="M478.784 423.872l-1.216 0.864c-88.256 62.656-90.752 64.416-136.8 90.496-28.864 16.384-66.944 28.8-97.504 36.992-29.12 7.744-62.656 14.56-82.72 14.56v-129.6c-0.256 0-0.16 0 0.32-0.064 1.408-0.128 5.888-0.64 14.112-2.144 9.728-1.792 21.92-4.512 34.912-8 27.392-7.264 52.672-16.352 67.008-24.48l3.2-1.792c36.832-20.896 37.056-20.992 123.68-82.496 108.832-77.248 202.88-72.384 295.168-67.584 22.144 1.152 44.16 2.272 66.272 2.272v129.6c-34.784 0-64-1.28-89.6-2.432-82.976-3.648-127.2-5.6-196.832 43.84z"/><path d="M891.936 318.496l-221.376 127.808V190.688l221.376 127.808z"/><path d="M156.576 566.912c-0.48-0.064-0.608-0.064-0.352-0.064v-129.6c20.064 0 53.6 6.816 82.72 14.592 30.592 8.128 68.64 20.608 97.504 36.96 46.08 26.112 48.544 27.84 136.8 90.496l1.216 0.864c69.632 49.408 113.856 47.456 196.864 43.84 25.568-1.152 54.784-2.432 89.6-2.432v129.568c-22.112 0-44.16 1.152-66.304 2.304-92.256 4.768-186.304 9.632-295.136-67.616-86.656-61.472-86.848-61.6-123.712-82.464a2162.176 2162.176 0 0 0-3.2-1.824c-14.336-8.096-39.616-17.216-66.976-24.48a473.12 473.12 0 0 0-34.944-8 185.76 185.76 0 0 0-14.08-2.144z"/><path d="M887.584 685.568l-221.376-127.808v255.584l221.376-127.808z"/></svg>
